<?xml version="1.0" encoding="UTF-8" standalone="no"?>
<!DOCTYPE svg PUBLIC "-//W3C//DTD SVG 1.1//EN"
 "http://www.w3.org/Graphics/SVG/1.1/DTD/svg11.dtd">
<!-- Generated by graphviz version 2.36.0 (20140111.2315)
 -->
<!-- Title: qwerk Requirements Dependency Pages: 1 -->
<svg width="325pt" height="323pt"
 viewBox="0.00 0.00 325.00 323.00" xmlns="http://www.w3.org/2000/svg" xmlns:xlink="http://www.w3.org/1999/xlink">
<g id="graph0" class="graph" transform="scale(1 1) rotate(0) translate(4 319)">
<title>qwerk Requirements Dependency</title>
<polygon fill="white" stroke="none" points="-4,4 -4,-319 321,-319 321,4 -4,4"/>
<g id="clust1" class="cluster"><title>cluster_Core_backlog</title>
<polygon fill="none" stroke="blue" points="8,-8 8,-307 309,-307 309,-8 8,-8"/>
<text text-anchor="middle" x="158.5" y="-291.8" font-family="Times,serif" font-size="14.00">Core_backlog</text>
</g>
<!-- represent_dependency -->
<g id="node1" class="node"><title>represent_dependency</title>
<polygon fill="none" stroke="black" points="16.5,-165 16.5,-201 153.5,-201 153.5,-165 16.5,-165"/>
<text text-anchor="middle" x="85" y="-179.3" font-family="Times,serif" font-size="14.00">represent_dependency</text>
</g>
<!-- extract_dependency -->
<g id="node5" class="node"><title>extract_dependency</title>
<polygon fill="none" stroke="black" points="22.5,-91 22.5,-127 147.5,-127 147.5,-91 22.5,-91"/>
<text text-anchor="middle" x="85" y="-105.3" font-family="Times,serif" font-size="14.00">extract_dependency</text>
</g>
<!-- represent_dependency&#45;&gt;extract_dependency -->
<g id="edge2" class="edge"><title>represent_dependency&#45;&gt;extract_dependency</title>
<path fill="none" stroke="black" d="M85,-164.937C85,-156.807 85,-146.876 85,-137.705"/>
<polygon fill="black" stroke="black" points="88.5001,-137.441 85,-127.441 81.5001,-137.441 88.5001,-137.441"/>
</g>
<!-- output_dependency -->
<g id="node2" class="node"><title>output_dependency</title>
<polygon fill="none" stroke="black" points="24,-17 24,-53 146,-53 146,-17 24,-17"/>
<text text-anchor="middle" x="85" y="-31.3" font-family="Times,serif" font-size="14.00">output_dependency</text>
</g>
<!-- output_requirements -->
<g id="node3" class="node"><title>output_requirements</title>
<polygon fill="none" stroke="black" points="171.5,-165 171.5,-201 300.5,-201 300.5,-165 171.5,-165"/>
<text text-anchor="middle" x="236" y="-179.3" font-family="Times,serif" font-size="14.00">output_requirements</text>
</g>
<!-- represent_requirements -->
<g id="node4" class="node"><title>represent_requirements</title>
<polygon fill="none" stroke="black" points="86,-239 86,-275 230,-275 230,-239 86,-239"/>
<text text-anchor="middle" x="158" y="-253.3" font-family="Times,serif" font-size="14.00">represent_requirements</text>
</g>
<!-- represent_requirements&#45;&gt;represent_dependency -->
<g id="edge1" class="edge"><title>represent_requirements&#45;&gt;represent_dependency</title>
<path fill="none" stroke="black" d="M140.7,-238.937C131.404,-229.768 119.785,-218.308 109.568,-208.231"/>
<polygon fill="black" stroke="black" points="112.006,-205.72 102.429,-201.19 107.091,-210.704 112.006,-205.72"/>
</g>
<!-- represent_requirements&#45;&gt;output_requirements -->
<g id="edge4" class="edge"><title>represent_requirements&#45;&gt;output_requirements</title>
<path fill="none" stroke="black" d="M176.485,-238.937C186.418,-229.768 198.833,-218.308 209.75,-208.231"/>
<polygon fill="black" stroke="black" points="212.403,-210.545 217.377,-201.19 207.655,-205.401 212.403,-210.545"/>
</g>
<!-- extract_dependency&#45;&gt;output_dependency -->
<g id="edge3" class="edge"><title>extract_dependency&#45;&gt;output_dependency</title>
<path fill="none" stroke="black" d="M85,-90.937C85,-82.8072 85,-72.8761 85,-63.7047"/>
<polygon fill="black" stroke="black" points="88.5001,-63.4406 85,-53.4407 81.5001,-63.4407 88.5001,-63.4406"/>
</g>
</g>
</svg>
